<mxfile host="app.diagrams.net" modified="2024-05-03T20:51:47.911Z" agent="Mozilla/5.0 (X11; Linux x86_64) AppleWebKit/537.36 (KHTML, like Gecko) Chrome/120.0.0.0 YaBrowser/24.1.0.0 Safari/537.36" etag="XzptG5_Y4b1ugJn4COTG" version="24.3.1" type="device">
  <diagram name="Страница — 1" id="mgLZvJFJcLSX8NvOzQ6Y">
    <mxGraphModel dx="1615" dy="897" grid="1" gridSize="10" guides="1" tooltips="1" connect="1" arrows="1" fold="1" page="1" pageScale="1" pageWidth="827" pageHeight="1169" math="0" shadow="0">
      <root>
        <mxCell id="0" />
        <mxCell id="1" parent="0" />
        <mxCell id="BKhIqPO599WWMoXGcLbZ-1" value="Заказчик" style="shape=umlActor;verticalLabelPosition=bottom;verticalAlign=top;html=1;outlineConnect=0;" vertex="1" parent="1">
          <mxGeometry x="70" y="30" width="30" height="60" as="geometry" />
        </mxCell>
        <mxCell id="BKhIqPO599WWMoXGcLbZ-4" value="Сотрудник" style="shape=umlActor;verticalLabelPosition=bottom;verticalAlign=top;html=1;outlineConnect=0;" vertex="1" parent="1">
          <mxGeometry x="186" y="30" width="30" height="60" as="geometry" />
        </mxCell>
        <mxCell id="BKhIqPO599WWMoXGcLbZ-7" value="System" style="rounded=0;whiteSpace=wrap;html=1;" vertex="1" parent="1">
          <mxGeometry x="290" y="50" width="90" height="20" as="geometry" />
        </mxCell>
        <mxCell id="BKhIqPO599WWMoXGcLbZ-8" value="DataPreparation" style="rounded=0;whiteSpace=wrap;html=1;" vertex="1" parent="1">
          <mxGeometry x="420" y="45" width="90" height="30" as="geometry" />
        </mxCell>
        <mxCell id="BKhIqPO599WWMoXGcLbZ-10" value="" style="html=1;points=[[0,0,0,0,5],[0,1,0,0,-5],[1,0,0,0,5],[1,1,0,0,-5]];perimeter=orthogonalPerimeter;outlineConnect=0;targetShapes=umlLifeline;portConstraint=eastwest;newEdgeStyle={&quot;curved&quot;:0,&quot;rounded&quot;:0};" vertex="1" parent="1">
          <mxGeometry x="80" y="160" width="10" height="60" as="geometry" />
        </mxCell>
        <mxCell id="BKhIqPO599WWMoXGcLbZ-12" value="" style="html=1;points=[[0,0,0,0,5],[0,1,0,0,-5],[1,0,0,0,5],[1,1,0,0,-5]];perimeter=orthogonalPerimeter;outlineConnect=0;targetShapes=umlLifeline;portConstraint=eastwest;newEdgeStyle={&quot;curved&quot;:0,&quot;rounded&quot;:0};" vertex="1" parent="1">
          <mxGeometry x="196" y="160" width="10" height="110" as="geometry" />
        </mxCell>
        <mxCell id="BKhIqPO599WWMoXGcLbZ-13" value="1:sendTask()" style="html=1;verticalAlign=bottom;endArrow=block;curved=0;rounded=0;entryX=0;entryY=0;entryDx=0;entryDy=5;entryPerimeter=0;exitX=1;exitY=0;exitDx=0;exitDy=5;exitPerimeter=0;" edge="1" parent="1">
          <mxGeometry x="0.1321" y="15" width="80" relative="1" as="geometry">
            <mxPoint x="89" y="170" as="sourcePoint" />
            <mxPoint x="195" y="170" as="targetPoint" />
            <mxPoint as="offset" />
          </mxGeometry>
        </mxCell>
        <mxCell id="BKhIqPO599WWMoXGcLbZ-14" value="2:sendData()" style="html=1;verticalAlign=bottom;endArrow=block;curved=0;rounded=0;entryX=0;entryY=0;entryDx=0;entryDy=5;entryPerimeter=0;exitX=1;exitY=0;exitDx=0;exitDy=5;exitPerimeter=0;" edge="1" parent="1">
          <mxGeometry x="0.1321" y="15" width="80" relative="1" as="geometry">
            <mxPoint x="90" y="219.77" as="sourcePoint" />
            <mxPoint x="196" y="219.77" as="targetPoint" />
            <mxPoint as="offset" />
          </mxGeometry>
        </mxCell>
        <mxCell id="BKhIqPO599WWMoXGcLbZ-18" value="" style="html=1;points=[[0,0,0,0,5],[0,1,0,0,-5],[1,0,0,0,5],[1,1,0,0,-5]];perimeter=orthogonalPerimeter;outlineConnect=0;targetShapes=umlLifeline;portConstraint=eastwest;newEdgeStyle={&quot;curved&quot;:0,&quot;rounded&quot;:0};" vertex="1" parent="1">
          <mxGeometry x="330" y="250" width="10" height="20" as="geometry" />
        </mxCell>
        <mxCell id="BKhIqPO599WWMoXGcLbZ-20" value="3:saveTargets ()" style="html=1;verticalAlign=bottom;endArrow=block;curved=0;rounded=0;exitX=1;exitY=0;exitDx=0;exitDy=5;exitPerimeter=0;" edge="1" parent="1" target="BKhIqPO599WWMoXGcLbZ-18">
          <mxGeometry x="0.1321" y="15" width="80" relative="1" as="geometry">
            <mxPoint x="206" y="250" as="sourcePoint" />
            <mxPoint x="312" y="250" as="targetPoint" />
            <mxPoint as="offset" />
          </mxGeometry>
        </mxCell>
        <mxCell id="BKhIqPO599WWMoXGcLbZ-21" value="" style="html=1;points=[[0,0,0,0,5],[0,1,0,0,-5],[1,0,0,0,5],[1,1,0,0,-5]];perimeter=orthogonalPerimeter;outlineConnect=0;targetShapes=umlLifeline;portConstraint=eastwest;newEdgeStyle={&quot;curved&quot;:0,&quot;rounded&quot;:0};" vertex="1" parent="1">
          <mxGeometry x="196" y="300" width="10" height="330" as="geometry" />
        </mxCell>
        <mxCell id="BKhIqPO599WWMoXGcLbZ-22" value="" style="html=1;points=[[0,0,0,0,5],[0,1,0,0,-5],[1,0,0,0,5],[1,1,0,0,-5]];perimeter=orthogonalPerimeter;outlineConnect=0;targetShapes=umlLifeline;portConstraint=eastwest;newEdgeStyle={&quot;curved&quot;:0,&quot;rounded&quot;:0};" vertex="1" parent="1">
          <mxGeometry x="460" y="300" width="10" height="360" as="geometry" />
        </mxCell>
        <mxCell id="BKhIqPO599WWMoXGcLbZ-23" value="5:startProcess()" style="html=1;verticalAlign=bottom;endArrow=block;curved=0;rounded=0;exitX=1;exitY=0;exitDx=0;exitDy=5;exitPerimeter=0;" edge="1" parent="1" target="BKhIqPO599WWMoXGcLbZ-22">
          <mxGeometry x="-0.4173" width="80" relative="1" as="geometry">
            <mxPoint x="206" y="300" as="sourcePoint" />
            <mxPoint x="330" y="300" as="targetPoint" />
            <mxPoint as="offset" />
          </mxGeometry>
        </mxCell>
        <mxCell id="BKhIqPO599WWMoXGcLbZ-24" value="4:endLoad()" style="html=1;verticalAlign=bottom;endArrow=open;dashed=1;endSize=8;curved=0;rounded=0;" edge="1" parent="1" source="BKhIqPO599WWMoXGcLbZ-18">
          <mxGeometry relative="1" as="geometry">
            <mxPoint x="286" y="270" as="sourcePoint" />
            <mxPoint x="206" y="270" as="targetPoint" />
          </mxGeometry>
        </mxCell>
        <mxCell id="BKhIqPO599WWMoXGcLbZ-25" value="" style="html=1;points=[[0,0,0,0,5],[0,1,0,0,-5],[1,0,0,0,5],[1,1,0,0,-5]];perimeter=orthogonalPerimeter;outlineConnect=0;targetShapes=umlLifeline;portConstraint=eastwest;newEdgeStyle={&quot;curved&quot;:0,&quot;rounded&quot;:0};" vertex="1" parent="1">
          <mxGeometry x="330" y="320" width="10" height="30" as="geometry" />
        </mxCell>
        <mxCell id="BKhIqPO599WWMoXGcLbZ-26" value="6:getData()" style="html=1;verticalAlign=bottom;endArrow=block;curved=0;rounded=0;" edge="1" parent="1">
          <mxGeometry width="80" relative="1" as="geometry">
            <mxPoint x="460" y="320" as="sourcePoint" />
            <mxPoint x="340" y="320" as="targetPoint" />
          </mxGeometry>
        </mxCell>
        <mxCell id="BKhIqPO599WWMoXGcLbZ-28" value="7:pushData()" style="html=1;verticalAlign=bottom;endArrow=open;dashed=1;endSize=8;curved=0;rounded=0;" edge="1" parent="1" target="BKhIqPO599WWMoXGcLbZ-22">
          <mxGeometry relative="1" as="geometry">
            <mxPoint x="340" y="350" as="sourcePoint" />
            <mxPoint x="450" y="350" as="targetPoint" />
          </mxGeometry>
        </mxCell>
        <mxCell id="BKhIqPO599WWMoXGcLbZ-30" value="9:startDataPreprocessing()" style="html=1;verticalAlign=bottom;endArrow=block;curved=0;rounded=0;" edge="1" parent="1">
          <mxGeometry width="80" relative="1" as="geometry">
            <mxPoint x="206" y="390" as="sourcePoint" />
            <mxPoint x="460" y="390.0000000000001" as="targetPoint" />
          </mxGeometry>
        </mxCell>
        <mxCell id="BKhIqPO599WWMoXGcLbZ-32" value="11:startDataScince()" style="html=1;verticalAlign=bottom;endArrow=block;curved=0;rounded=0;" edge="1" parent="1">
          <mxGeometry width="80" relative="1" as="geometry">
            <mxPoint x="206" y="450" as="sourcePoint" />
            <mxPoint x="460" y="450" as="targetPoint" />
          </mxGeometry>
        </mxCell>
        <mxCell id="BKhIqPO599WWMoXGcLbZ-35" value="13:startDataCleaning()" style="html=1;verticalAlign=bottom;endArrow=block;curved=0;rounded=0;" edge="1" parent="1">
          <mxGeometry width="80" relative="1" as="geometry">
            <mxPoint x="206" y="510" as="sourcePoint" />
            <mxPoint x="460" y="510" as="targetPoint" />
          </mxGeometry>
        </mxCell>
        <mxCell id="BKhIqPO599WWMoXGcLbZ-37" value="15:startDataAugmentation()" style="html=1;verticalAlign=bottom;endArrow=block;curved=0;rounded=0;" edge="1" parent="1">
          <mxGeometry width="80" relative="1" as="geometry">
            <mxPoint x="208" y="560" as="sourcePoint" />
            <mxPoint x="462" y="560" as="targetPoint" />
          </mxGeometry>
        </mxCell>
        <mxCell id="BKhIqPO599WWMoXGcLbZ-38" value="16:SaveResult()" style="html=1;verticalAlign=bottom;endArrow=open;dashed=1;endSize=8;curved=0;rounded=0;" edge="1" parent="1">
          <mxGeometry relative="1" as="geometry">
            <mxPoint x="460" y="629.31" as="sourcePoint" />
            <mxPoint x="340" y="630" as="targetPoint" />
          </mxGeometry>
        </mxCell>
        <mxCell id="BKhIqPO599WWMoXGcLbZ-41" value="" style="endArrow=none;dashed=1;html=1;rounded=0;" edge="1" parent="1" source="BKhIqPO599WWMoXGcLbZ-10">
          <mxGeometry width="50" height="50" relative="1" as="geometry">
            <mxPoint x="90" y="160" as="sourcePoint" />
            <mxPoint x="85" y="110" as="targetPoint" />
          </mxGeometry>
        </mxCell>
        <mxCell id="BKhIqPO599WWMoXGcLbZ-42" value="" style="endArrow=none;dashed=1;html=1;rounded=0;" edge="1" parent="1">
          <mxGeometry width="50" height="50" relative="1" as="geometry">
            <mxPoint x="200.89" y="160" as="sourcePoint" />
            <mxPoint x="200.89" y="110" as="targetPoint" />
          </mxGeometry>
        </mxCell>
        <mxCell id="BKhIqPO599WWMoXGcLbZ-43" value="" style="endArrow=none;dashed=1;html=1;rounded=0;" edge="1" parent="1">
          <mxGeometry width="50" height="50" relative="1" as="geometry">
            <mxPoint x="201" y="300" as="sourcePoint" />
            <mxPoint x="200.8" y="270" as="targetPoint" />
          </mxGeometry>
        </mxCell>
        <mxCell id="BKhIqPO599WWMoXGcLbZ-44" value="" style="endArrow=none;dashed=1;html=1;rounded=0;entryX=0.5;entryY=1;entryDx=0;entryDy=0;" edge="1" parent="1" source="BKhIqPO599WWMoXGcLbZ-18" target="BKhIqPO599WWMoXGcLbZ-7">
          <mxGeometry width="50" height="50" relative="1" as="geometry">
            <mxPoint x="210.89" y="170" as="sourcePoint" />
            <mxPoint x="210.89" y="120" as="targetPoint" />
          </mxGeometry>
        </mxCell>
        <mxCell id="BKhIqPO599WWMoXGcLbZ-45" value="" style="endArrow=none;dashed=1;html=1;rounded=0;" edge="1" parent="1" source="BKhIqPO599WWMoXGcLbZ-25">
          <mxGeometry width="50" height="50" relative="1" as="geometry">
            <mxPoint x="334.66" y="300" as="sourcePoint" />
            <mxPoint x="334.66" y="270" as="targetPoint" />
          </mxGeometry>
        </mxCell>
        <mxCell id="BKhIqPO599WWMoXGcLbZ-46" value="" style="endArrow=none;dashed=1;html=1;rounded=0;entryX=0.5;entryY=1;entryDx=0;entryDy=0;" edge="1" parent="1" target="BKhIqPO599WWMoXGcLbZ-8">
          <mxGeometry width="50" height="50" relative="1" as="geometry">
            <mxPoint x="464.47" y="300" as="sourcePoint" />
            <mxPoint x="464.47" y="120" as="targetPoint" />
          </mxGeometry>
        </mxCell>
        <mxCell id="BKhIqPO599WWMoXGcLbZ-47" value="" style="html=1;points=[[0,0,0,0,5],[0,1,0,0,-5],[1,0,0,0,5],[1,1,0,0,-5]];perimeter=orthogonalPerimeter;outlineConnect=0;targetShapes=umlLifeline;portConstraint=eastwest;newEdgeStyle={&quot;curved&quot;:0,&quot;rounded&quot;:0};" vertex="1" parent="1">
          <mxGeometry x="330" y="630" width="10" height="70" as="geometry" />
        </mxCell>
        <mxCell id="BKhIqPO599WWMoXGcLbZ-48" value="10:DataPreprocessing()" style="html=1;verticalAlign=bottom;endArrow=block;curved=0;rounded=0;" edge="1" parent="1" target="BKhIqPO599WWMoXGcLbZ-22">
          <mxGeometry x="0.037" y="70" width="80" relative="1" as="geometry">
            <mxPoint x="470" y="390" as="sourcePoint" />
            <mxPoint x="480" y="420" as="targetPoint" />
            <Array as="points">
              <mxPoint x="590" y="390" />
              <mxPoint x="590" y="420" />
            </Array>
            <mxPoint as="offset" />
          </mxGeometry>
        </mxCell>
        <mxCell id="BKhIqPO599WWMoXGcLbZ-49" value="12:DataScince()" style="html=1;verticalAlign=bottom;endArrow=block;curved=0;rounded=0;" edge="1" parent="1">
          <mxGeometry x="0.037" y="70" width="80" relative="1" as="geometry">
            <mxPoint x="470" y="465" as="sourcePoint" />
            <mxPoint x="470" y="495" as="targetPoint" />
            <Array as="points">
              <mxPoint x="590" y="465" />
              <mxPoint x="590" y="495" />
            </Array>
            <mxPoint as="offset" />
          </mxGeometry>
        </mxCell>
        <mxCell id="BKhIqPO599WWMoXGcLbZ-50" value="14:DataAugmentation()" style="html=1;verticalAlign=bottom;endArrow=block;curved=0;rounded=0;" edge="1" parent="1">
          <mxGeometry x="0.037" y="70" width="80" relative="1" as="geometry">
            <mxPoint x="470" y="520" as="sourcePoint" />
            <mxPoint x="470" y="550" as="targetPoint" />
            <Array as="points">
              <mxPoint x="590" y="520" />
              <mxPoint x="590" y="550" />
            </Array>
            <mxPoint as="offset" />
          </mxGeometry>
        </mxCell>
        <mxCell id="BKhIqPO599WWMoXGcLbZ-52" value="" style="endArrow=none;dashed=1;html=1;rounded=0;" edge="1" parent="1" source="BKhIqPO599WWMoXGcLbZ-47">
          <mxGeometry width="50" height="50" relative="1" as="geometry">
            <mxPoint x="334.91" y="400" as="sourcePoint" />
            <mxPoint x="334.57000000000005" y="350" as="targetPoint" />
          </mxGeometry>
        </mxCell>
        <mxCell id="BKhIqPO599WWMoXGcLbZ-55" value="" style="endArrow=none;dashed=1;html=1;rounded=0;entryX=0.5;entryY=1;entryDx=0;entryDy=0;" edge="1" parent="1">
          <mxGeometry width="50" height="50" relative="1" as="geometry">
            <mxPoint x="85" y="720" as="sourcePoint" />
            <mxPoint x="84.91000000000003" y="222.5" as="targetPoint" />
          </mxGeometry>
        </mxCell>
        <mxCell id="BKhIqPO599WWMoXGcLbZ-56" value="" style="endArrow=none;dashed=1;html=1;rounded=0;entryX=0.5;entryY=1;entryDx=0;entryDy=0;" edge="1" parent="1">
          <mxGeometry width="50" height="50" relative="1" as="geometry">
            <mxPoint x="200" y="720" as="sourcePoint" />
            <mxPoint x="200.37" y="630" as="targetPoint" />
          </mxGeometry>
        </mxCell>
        <mxCell id="BKhIqPO599WWMoXGcLbZ-57" value="" style="endArrow=none;dashed=1;html=1;rounded=0;entryX=0.5;entryY=1;entryDx=0;entryDy=0;" edge="1" parent="1">
          <mxGeometry width="50" height="50" relative="1" as="geometry">
            <mxPoint x="335" y="720" as="sourcePoint" />
            <mxPoint x="335.07" y="700" as="targetPoint" />
          </mxGeometry>
        </mxCell>
        <mxCell id="BKhIqPO599WWMoXGcLbZ-58" value="" style="endArrow=none;dashed=1;html=1;rounded=0;entryX=0.5;entryY=1;entryDx=0;entryDy=0;" edge="1" parent="1">
          <mxGeometry width="50" height="50" relative="1" as="geometry">
            <mxPoint x="465" y="720" as="sourcePoint" />
            <mxPoint x="465.07" y="660" as="targetPoint" />
          </mxGeometry>
        </mxCell>
      </root>
    </mxGraphModel>
  </diagram>
</mxfile>
